<svg width="208" height="208" viewBox="0 0 208 208" fill="none" xmlns="http://www.w3.org/2000/svg">
<path d="M19.6781 147.914V129.669H15.2542L10.0711 142.606H9.96709L4.78399 129.669H0.361389V147.915H3.76219V135.598H3.86099L8.81919 147.737H11.219L16.1772 135.598H16.2773V147.915H19.6781V147.914ZM28.8704 148.204C32.9654 148.204 35.5849 145.588 35.5849 141.127C35.5849 136.725 32.9264 134.072 28.8704 134.072C24.8131 134.072 22.1546 136.738 22.1546 141.127C22.1546 145.575 24.7741 148.204 28.8704 148.204ZM28.8704 145.386C27.0491 145.386 25.9012 143.858 25.9012 141.138C25.9012 138.446 27.0751 136.887 28.8704 136.887C30.6657 136.887 31.8305 138.445 31.8305 141.138C31.8305 143.858 30.6787 145.386 28.8704 145.386ZM45.6352 134.147C43.6761 134.147 42.1694 135.131 41.4362 136.724H41.3595V134.359H37.7208V152.338H41.4102V145.64H41.4882C42.2084 147.168 43.7229 148.131 45.6963 148.131C49.0841 148.131 51.1862 145.499 51.1862 141.14C51.1862 136.763 49.0711 134.147 45.6352 134.147ZM44.3924 145.157C42.588 145.157 41.3972 143.59 41.3972 141.138C41.3972 138.709 42.588 137.103 44.3924 137.103C46.2397 137.103 47.4045 138.683 47.4045 141.138C47.4058 143.603 46.2397 145.157 44.3924 145.157ZM65.5616 138.99C65.208 136.141 62.9551 134.07 59.4672 134.07C55.419 134.07 52.8515 136.802 52.8515 141.125C52.8515 145.523 55.419 148.203 59.4932 148.203C62.9278 148.203 65.2457 146.283 65.5733 143.287H62.1335C61.8189 144.564 60.9076 145.306 59.527 145.306C57.6979 145.306 56.5708 143.766 56.5708 141.124C56.5708 138.531 57.6979 136.964 59.514 136.964C60.9206 136.964 61.8059 137.81 62.1075 138.988H65.5616V138.99ZM74.7006 140.63L80.1125 134.359H75.8927L71.3908 139.81H71.2868V134.359H67.6104V147.914H71.2868V142.097H71.3908L75.9655 147.914H80.4271L74.7006 140.63ZM87.6733 148.204C91.7683 148.204 94.3878 145.588 94.3878 141.127C94.3878 136.725 91.7293 134.072 87.6733 134.072C83.616 134.072 80.9575 136.738 80.9575 141.127C80.9588 145.575 83.5783 148.204 87.6733 148.204ZM87.6733 145.386C85.852 145.386 84.7041 143.858 84.7041 141.138C84.7041 138.446 85.878 136.887 87.6733 136.887C89.4686 136.887 90.6334 138.445 90.6334 141.138C90.6347 143.858 89.4816 145.386 87.6733 145.386ZM100.142 147.914L105.527 139.343H105.626V147.914H109.243V134.359H105.626L100.24 142.831H100.142V134.359H96.525V147.914H100.142ZM98.5452 128.227C98.5452 130.722 100.327 132.387 102.999 132.387C105.654 132.387 107.449 130.722 107.449 128.227H105.183C105.161 129.581 104.311 130.558 102.999 130.558C101.67 130.558 100.824 129.583 100.798 128.227H98.5452ZM125.392 148.32C129.728 148.32 132.801 145.843 133.393 141.946H129.639C129.108 143.892 127.542 145.071 125.404 145.071C122.483 145.071 120.649 142.667 120.649 138.775C120.649 134.93 122.509 132.517 125.392 132.517C127.488 132.517 129.146 133.816 129.626 135.827H133.384C132.9 131.947 129.639 129.267 125.392 129.267C120.104 129.267 116.756 132.906 116.756 138.787C116.757 144.678 120.084 148.32 125.392 148.32ZM141.765 136.802C143.41 136.802 144.531 137.989 144.609 139.723H138.857C138.982 138.028 140.146 136.802 141.765 136.802ZM144.661 143.767C144.321 144.803 143.281 145.475 141.93 145.475C140.044 145.475 138.818 144.147 138.818 142.212V141.983H148.161V140.856C148.161 136.735 145.671 134.068 141.726 134.068C137.717 134.068 135.187 136.873 135.187 141.197C135.187 145.534 137.691 148.201 141.864 148.201C145.218 148.201 147.642 146.419 148.048 143.764H144.661V143.767ZM158.217 134.147C156.257 134.147 154.751 135.131 154.018 136.724H153.939V134.359H150.301V152.338H153.99V145.64H154.068C154.788 147.168 156.303 148.131 158.276 148.131C161.664 148.131 163.766 145.499 163.766 141.14C163.766 136.763 161.651 134.147 158.217 134.147ZM156.974 145.157C155.169 145.157 153.979 143.59 153.979 141.138C153.979 138.709 155.169 137.103 156.974 137.103C158.821 137.103 159.986 138.683 159.986 141.138C159.986 143.603 158.821 145.157 156.974 145.157ZM171.742 136.699C172.958 136.699 173.641 137.268 173.641 138.256C173.641 139.279 172.908 139.849 171.552 139.849H169.558V136.699H171.742ZM171.742 141.985C173.312 141.985 174.145 142.593 174.145 143.767C174.145 144.945 173.347 145.575 171.906 145.575H169.558V141.985H171.742ZM165.941 147.914H172.854C175.928 147.914 177.848 146.374 177.848 143.996C177.848 142.288 176.596 141.023 174.788 140.811V140.707C176.181 140.491 177.243 139.226 177.243 137.773C177.243 135.637 175.547 134.359 172.73 134.359H165.941V147.914ZM183.678 147.914L189.064 139.343H189.163V147.914H192.78V134.359H189.163L183.777 142.831H183.678V134.359H180.062V147.914H183.678ZM207.627 138.99C207.273 136.141 205.02 134.07 201.532 134.07C197.484 134.07 194.917 136.802 194.917 141.125C194.917 145.523 197.484 148.203 201.559 148.203C204.993 148.203 207.311 146.283 207.639 143.287H204.199C203.884 144.564 202.973 145.306 201.592 145.306C199.763 145.306 198.636 143.766 198.636 141.124C198.636 138.531 199.763 136.964 201.579 136.964C202.986 136.964 203.871 137.81 204.173 138.988H207.627V138.99Z" fill="black"/>
<path d="M67.0709 174.431C69.2458 174.431 70.3937 173.378 71.7964 170.098L76.3256 159.542H74.4081L70.5367 169.126H70.3729L66.4066 159.542H64.441L69.4915 171.175C68.9078 172.259 68.1798 172.721 67.0709 172.721C66.7563 172.721 66.4586 172.689 66.2519 172.64V174.297C66.417 174.382 66.7355 174.431 67.0709 174.431ZM80.834 168.717L85.8104 163.673H83.6108L79.0608 168.388H78.9763V163.673H77.2135V174.33H78.9763V169.205H79.0608L83.6602 174.33H85.9547L80.834 168.717ZM92.6276 163.488C91.078 163.488 89.8404 164.278 89.1826 165.478H89.1449V163.674H87.451V177.888H89.2346V172.6H89.2762C89.9093 173.768 91.1404 174.516 92.6692 174.516C95.3511 174.516 97.188 172.344 97.188 169.004C97.188 165.659 95.342 163.488 92.6276 163.488ZM92.2779 172.944C90.4553 172.944 89.2242 171.378 89.2242 169.003C89.2242 166.634 90.4553 165.057 92.2779 165.057C94.1733 165.057 95.3628 166.592 95.3628 169.003C95.3628 171.419 94.1733 172.944 92.2779 172.944ZM102.69 172.997C101.41 172.997 100.56 172.333 100.56 171.319C100.56 170.316 101.379 169.679 102.813 169.588L105.664 169.412V170.283C105.663 171.818 104.373 172.997 102.69 172.997ZM102.292 174.516C103.726 174.516 105.079 173.715 105.712 172.498H105.754V174.331H107.446V166.965C107.446 164.843 105.865 163.489 103.368 163.489C100.846 163.489 99.2693 164.906 99.1471 166.748H100.868C101.092 165.703 101.952 165.06 103.327 165.06C104.802 165.06 105.663 165.836 105.663 167.137V168.029L102.609 168.203C100.151 168.347 98.7441 169.494 98.7441 171.319C98.7454 173.235 100.171 174.516 102.292 174.516ZM111.654 174.33L116.984 166.397H117.065V174.33H118.828V163.673H117.065L111.739 171.605H111.654V163.673H109.892V174.33H111.654ZM128.348 174.33H130.11V163.673H128.348V168.069H123.09V163.673H121.328V174.33H123.09V169.536H128.348V174.33ZM141.743 174.33H143.506V163.673H141.743V174.33ZM136.374 168.541C137.745 168.541 138.648 169.391 138.648 170.703C138.648 172.004 137.756 172.864 136.374 172.864H134.384V168.541H136.374ZM132.622 174.33H136.402C138.844 174.33 140.41 172.927 140.41 170.703C140.41 168.479 138.844 167.076 136.402 167.076H134.385V163.673H132.622V174.33Z" fill="black"/>
<path fill-rule="evenodd" clip-rule="evenodd" d="M104 30.1133C115.821 30.1133 126.524 34.9051 134.27 42.6518C142.017 50.3985 146.809 61.1014 146.809 72.9223C146.809 79.8981 145.14 86.4852 142.18 92.3053C141.241 91.7632 140.058 91.2354 138.264 91.1327C138.06 91.121 137.847 91.1145 137.626 91.1145C134.959 91.1145 133.528 92.0089 132.378 92.7278C131.436 93.3154 130.757 93.7418 129.219 93.7418C127.682 93.7418 127.001 93.3167 126.06 92.7278C125.497 92.3755 124.868 91.9829 124.059 91.6709L128.29 79.9293L128.298 79.9059C129.081 77.6504 128.943 75.6653 127.964 73.9662C127.016 72.323 125.325 71.0763 122.963 70.2339L122.908 70.2183L122.694 70.1481V56.2316V54.2244H120.687H112.698V48.4069V46.3997H110.691H97.3076H95.3004V48.4069V54.2244H87.3119H85.306V56.2316V70.1507L85.0915 70.2209L85.0369 70.2365C82.6735 71.0789 80.9835 72.3256 80.0358 73.9688C79.0569 75.6679 78.9191 77.6517 79.7017 79.9085L79.7095 79.9319L83.941 91.6735C83.1324 91.9842 82.5019 92.3781 81.9377 92.7304C80.9952 93.318 80.3153 93.7444 78.7787 93.7444C77.2434 93.7444 76.5622 93.3193 75.6197 92.7304C74.4705 92.0115 73.0392 91.1171 70.3716 91.1171C70.1519 91.1171 69.94 91.1236 69.7359 91.1353C67.9419 91.2367 66.7589 91.7645 65.8203 92.3066C62.8602 86.4865 61.191 79.9007 61.191 72.9249C61.191 61.104 65.9828 50.4011 73.7295 42.6544C81.4762 34.9051 92.1791 30.1133 104 30.1133Z" fill="#07A7EB"/>
<path d="M95.5916 93.7418C94.0563 93.7418 93.3751 93.3167 92.4326 92.7278C91.2821 92.0089 89.8521 91.1145 87.1845 91.1145C84.5182 91.1145 83.0869 92.0089 81.9364 92.7278C80.9939 93.3154 80.314 93.7418 78.7774 93.7418C77.2421 93.7418 76.5609 93.3167 75.6184 92.7278C74.4692 92.0089 73.0379 91.1145 70.3703 91.1145C70.1506 91.1145 69.9387 91.121 69.7346 91.1327C70.5302 92.6277 71.422 94.0629 72.3996 95.4344C72.7857 95.6047 73.1341 95.8231 73.5293 96.0701C74.6798 96.789 76.1098 97.6834 78.7761 97.6834C81.4424 97.6834 82.875 96.789 84.0242 96.0701C84.9667 95.4812 85.6466 95.0561 87.1832 95.0561C88.7198 95.0561 89.401 95.4812 90.3422 96.0701C91.4914 96.789 92.924 97.6834 95.5903 97.6834C98.2579 97.6834 99.6892 96.789 100.838 96.0701C101.781 95.4812 102.461 95.0561 103.997 95.0561C105.534 95.0561 106.214 95.4812 107.156 96.0701C108.306 96.789 109.737 97.6834 112.403 97.6834C115.071 97.6834 116.501 96.789 117.651 96.0701C118.592 95.4812 119.274 95.0561 120.809 95.0561C122.346 95.0561 123.027 95.4812 123.968 96.0701C125.118 96.789 126.548 97.6834 129.216 97.6834C131.882 97.6834 133.314 96.789 134.464 96.0701C134.861 95.8231 135.21 95.6034 135.598 95.4331C136.575 94.0629 137.466 92.6277 138.261 91.134C138.056 91.1223 137.844 91.1158 137.623 91.1158C134.957 91.1158 133.526 92.0102 132.375 92.7291C131.434 93.3167 130.754 93.7431 129.216 93.7431C127.679 93.7431 126.998 93.318 126.057 92.7291C124.907 92.0102 123.475 91.1158 120.809 91.1158C118.143 91.1158 116.711 92.0102 115.562 92.7291C114.62 93.3167 113.938 93.7431 112.402 93.7431C110.865 93.7431 110.185 93.318 109.243 92.7291C108.092 92.0102 106.662 91.1158 103.995 91.1158C101.328 91.1158 99.8972 92.0102 98.7467 92.7291C97.8094 93.3167 97.1295 93.7418 95.5916 93.7418Z" fill="black"/>
<path d="M95.5916 93.7418C94.0563 93.7418 93.3751 93.3167 92.4326 92.7278C91.2821 92.0089 89.8521 91.1145 87.1845 91.1145C84.5182 91.1145 83.0869 92.0089 81.9364 92.7278C80.9939 93.3154 80.314 93.7418 78.7774 93.7418C77.2421 93.7418 76.5609 93.3167 75.6184 92.7278C74.4692 92.0089 73.0379 91.1145 70.3703 91.1145C67.704 91.1145 66.2727 92.0089 65.1222 92.7278C64.181 93.3154 63.4998 93.7418 61.9632 93.7418H61.8878V97.6821H61.9632C64.6295 97.6821 66.0608 96.7877 67.2113 96.0688C68.1538 95.4799 68.8337 95.0548 70.3703 95.0548C71.9069 95.0548 72.5881 95.4799 73.5293 96.0688C74.6798 96.7877 76.1098 97.6821 78.7761 97.6821C81.4424 97.6821 82.875 96.7877 84.0242 96.0688C84.9667 95.4799 85.6466 95.0548 87.1832 95.0548C88.7198 95.0548 89.401 95.4799 90.3422 96.0688C91.4914 96.7877 92.924 97.6821 95.5903 97.6821C98.2579 97.6821 99.6892 96.7877 100.838 96.0688C101.781 95.4799 102.461 95.0548 103.997 95.0548C105.534 95.0548 106.214 95.4799 107.156 96.0688C108.306 96.7877 109.737 97.6821 112.403 97.6821C115.071 97.6821 116.501 96.7877 117.651 96.0688C118.592 95.4799 119.274 95.0548 120.809 95.0548C122.346 95.0548 123.027 95.4799 123.968 96.0688C125.118 96.7877 126.548 97.6821 129.216 97.6821C131.882 97.6821 133.314 96.7877 134.464 96.0688C135.407 95.4799 136.087 95.0548 137.623 95.0548C139.16 95.0548 139.841 95.4799 140.782 96.0688C141.933 96.7877 143.363 97.6821 146.029 97.6821H146.107V93.7418H146.029C144.494 93.7418 143.812 93.3167 142.87 92.7278C141.721 92.0089 140.289 91.1145 137.622 91.1145C134.956 91.1145 133.524 92.0089 132.374 92.7278C131.433 93.3154 130.753 93.7418 129.215 93.7418C127.678 93.7418 126.997 93.3167 126.056 92.7278C124.905 92.0089 123.474 91.1145 120.808 91.1145C118.141 91.1145 116.71 92.0089 115.561 92.7278C114.618 93.3154 113.937 93.7418 112.401 93.7418C110.864 93.7418 110.184 93.3167 109.242 92.7278C108.091 92.0089 106.661 91.1145 103.993 91.1145C101.327 91.1145 99.8959 92.0089 98.7454 92.7278C97.8094 93.3167 97.1295 93.7418 95.5916 93.7418Z" fill="black"/>
<path d="M95.5916 103.06C94.0563 103.06 93.3751 102.635 92.4326 102.046C91.2821 101.327 89.8521 100.433 87.1845 100.433C84.5182 100.433 83.0869 101.327 81.9364 102.046C80.9991 102.631 80.3218 103.056 78.7995 103.06V107C81.4515 106.995 82.8789 106.103 84.0242 105.387C84.9667 104.798 85.6466 104.373 87.1832 104.373C88.7198 104.373 89.401 104.798 90.3422 105.387C91.4914 106.106 92.924 107 95.5903 107C98.2579 107 99.6892 106.106 100.838 105.387C101.781 104.798 102.461 104.373 103.997 104.373C105.534 104.373 106.214 104.798 107.156 105.387C108.306 106.106 109.737 107 112.403 107C115.071 107 116.501 106.106 117.651 105.387C118.593 104.798 119.274 104.373 120.809 104.373C122.346 104.373 123.027 104.798 123.968 105.387C125.115 106.105 126.542 106.997 129.194 107V103.06C127.673 103.056 126.993 102.631 126.057 102.046C124.907 101.327 123.475 100.433 120.809 100.433C118.143 100.433 116.711 101.327 115.562 102.046C114.62 102.635 113.939 103.06 112.402 103.06C110.865 103.06 110.185 102.635 109.243 102.046C108.092 101.327 106.662 100.433 103.995 100.433C101.329 100.433 99.8972 101.327 98.7467 102.046C97.8094 102.635 97.1295 103.06 95.5916 103.06Z" fill="black"/>
<path d="M95.5916 112.463H95.5435V116.403H95.5916C98.2592 116.403 99.6905 115.509 100.84 114.79C101.782 114.201 102.462 113.776 103.999 113.776C105.535 113.776 106.215 114.201 107.158 114.79C108.307 115.509 109.738 116.403 112.404 116.403H112.454V112.463H112.404C110.868 112.463 110.188 112.038 109.245 111.449C108.095 110.73 106.665 109.836 103.997 109.836C101.331 109.836 99.8998 110.73 98.7493 111.449C97.8094 112.037 97.1295 112.463 95.5916 112.463Z" fill="black"/>
<path d="M95.3017 54.2244V48.4069V46.3997H97.3089H110.692H112.7V48.4069V54.2244H120.688H122.695V56.2316V70.1507L122.91 70.2209L122.964 70.2365C125.328 71.0789 127.018 72.3256 127.965 73.9688C128.944 75.6679 129.082 77.6517 128.3 79.9085L128.292 79.9319L122.841 95.0548L119.079 93.7066L124.53 78.5838C124.901 77.4957 124.882 76.6221 124.501 75.9604C124.052 75.1843 123.081 74.533 121.632 74.0156V74.0142L106.007 68.9599V92.5835H101.994V68.9586L86.3694 74.013V74.0142C84.9199 74.5317 83.9475 75.183 83.5003 75.9591C83.1194 76.6195 83.0986 77.4944 83.4717 78.5825L88.9226 93.7054L85.1604 95.0534L79.7095 79.9306L79.7017 79.9072C78.9204 77.6517 79.0569 75.6666 80.0358 73.9675C80.9835 72.3243 82.6748 71.0776 85.0369 70.2352L85.0915 70.2196L85.306 70.1494V56.2316V54.2244H87.3132H95.3017ZM118.68 68.852V58.2388H89.3204V68.852L103.389 64.3007L104 64.1031L104.612 64.3007L118.68 68.852ZM108.685 54.2244V50.4141H99.3161V54.2257H108.685V54.2244Z" fill="black"/>
<path fill-rule="evenodd" clip-rule="evenodd" d="M101.993 75.7523V68.9585L86.3681 74.0129V74.0142C84.9186 74.5316 83.9462 75.1829 83.499 75.959C83.1181 76.6194 83.0973 77.4943 83.4704 78.5824L84.0645 80.2308L101.993 75.7523Z" fill="#07A7EB"/>
<path fill-rule="evenodd" clip-rule="evenodd" d="M106.007 68.9585V75.7523L123.935 80.2308L124.53 78.5824C124.901 77.4943 124.882 76.6207 124.501 75.959C124.052 75.1829 123.081 74.5316 121.632 74.0142V74.0129L106.007 68.9585Z" fill="#07A7EB"/>
<path fill-rule="evenodd" clip-rule="evenodd" d="M104 39.3589C122.612 39.3589 137.7 54.4467 137.7 73.0588C137.7 80.7665 135.112 87.8671 130.758 93.5442C130.338 93.669 129.85 93.7418 129.22 93.7418C127.683 93.7418 127.002 93.3167 126.061 92.7278C125.498 92.3755 124.869 91.9829 124.06 91.6709L128.292 79.9293L128.3 79.9059C129.082 77.6504 128.944 75.6653 127.965 73.9662C127.018 72.323 125.326 71.0763 122.964 70.2339L122.91 70.2183L122.695 70.1481V56.2316V54.2244H120.688H112.7V48.4069V46.3997H110.692H97.3076H95.3004V48.4069V54.2244H87.3119H85.306V56.2316V70.1507L85.0915 70.2209L85.0369 70.2365C82.6735 71.0789 80.9835 72.3256 80.0358 73.9688C79.0569 75.6679 78.9191 77.6517 79.7017 79.9085L79.7095 79.9319L83.941 91.6735C83.1324 91.9842 82.5019 92.3781 81.9377 92.7304C80.9952 93.318 80.3153 93.7444 78.7787 93.7444C78.1495 93.7444 77.6633 93.6729 77.2434 93.5481C72.8897 87.871 70.3001 80.7691 70.3001 73.0614C70.3001 54.4467 85.3879 39.3589 104 39.3589Z" fill="#45C7FF"/>
</svg>
